<?xml version="1.0" standalone="no"?>
<!DOCTYPE svg PUBLIC "-//W3C//DTD SVG 20010904//EN"
 "http://www.w3.org/TR/2001/REC-SVG-20010904/DTD/svg10.dtd">
<svg version="1.0" xmlns="http://www.w3.org/2000/svg"
 width="700.000000pt" height="700.000000pt" viewBox="0 0 700.000000 700.000000"
 preserveAspectRatio="xMidYMid meet">
<metadata>
Created by potrace 1.14, written by Peter Selinger 2001-2017
</metadata>
<g transform="translate(0.000000,700.000000) scale(0.100000,-0.100000)"
fill="#000000" stroke="none">
<path d="M13 6483 c-10 -4 -13 -447 -13 -2168 0 -2051 1 -2165 17 -2173 10 -5
1232 -8 2716 -8 2621 1 2697 0 2703 -18 13 -40 7 -243 -11 -376 -16 -117 -77
-330 -138 -481 -48 -117 -173 -364 -237 -469 -5 -8 -39 -64 -76 -124 -37 -59
-68 -119 -70 -132 -3 -30 28 -70 59 -76 16 -3 40 6 70 26 49 33 190 141 217
166 9 8 38 33 65 55 91 73 101 81 195 163 98 86 379 369 433 437 27 33 55 69
64 80 138 167 278 475 308 680 4 22 8 47 11 55 3 13 43 15 296 15 161 -1 303
1 316 3 13 3 31 16 39 29 15 23 17 203 17 2122 1 1153 -2 2114 -5 2135 -4 22
-15 46 -25 53 -15 11 -641 13 -3478 12 -1904 0 -3467 -3 -3473 -6z"/>
</g>
</svg>
